<?xml version="1.0" encoding="UTF-8" standalone="no"?>
<!-- Created with Inkscape (http://www.inkscape.org/) -->

<svg
   xmlns:dc="http://purl.org/dc/elements/1.1/"
   xmlns:cc="http://creativecommons.org/ns#"
   xmlns:rdf="http://www.w3.org/1999/02/22-rdf-syntax-ns#"
   xmlns:svg="http://www.w3.org/2000/svg"
   xmlns="http://www.w3.org/2000/svg"
   xmlns:sodipodi="http://sodipodi.sourceforge.net/DTD/sodipodi-0.dtd"
   xmlns:inkscape="http://www.inkscape.org/namespaces/inkscape"
   width="210mm"
   height="297mm"
   viewBox="0 0 210 297"
   version="1.1"
   id="svg8"
   inkscape:version="0.92.4 (5da689c313, 2019-01-14)"
   sodipodi:docname="evil-moo.svg">
  <defs
     id="defs2" />
  <sodipodi:namedview
     id="base"
     pagecolor="#ffffff"
     bordercolor="#666666"
     borderopacity="1.0"
     inkscape:pageopacity="0.0"
     inkscape:pageshadow="2"
     inkscape:zoom="7.7255596"
     inkscape:cx="402.07566"
     inkscape:cy="807.49026"
     inkscape:document-units="mm"
     inkscape:current-layer="layer1"
     showgrid="false"
     inkscape:window-width="1920"
     inkscape:window-height="1057"
     inkscape:window-x="-8"
     inkscape:window-y="-8"
     inkscape:window-maximized="1" />
  <metadata
     id="metadata5">
    <rdf:RDF>
      <cc:Work
         rdf:about="">
        <dc:format>image/svg+xml</dc:format>
        <dc:type
           rdf:resource="http://purl.org/dc/dcmitype/StillImage" />
        <dc:title></dc:title>
      </cc:Work>
    </rdf:RDF>
  </metadata>
  <g
     inkscape:label="Layer 1"
     inkscape:groupmode="layer"
     id="layer1">
    <path
       style="fill:#000000;stroke-width:0.04233333"
       d="m 90.264607,88.604517 c -3.438208,-0.172465 -6.957586,-1.710235 -9.076028,-4.483865 -1.303261,-1.849752 -0.473812,-4.479439 1.274005,-5.72867 0.929484,-0.989908 3.743414,-2.134893 3.909698,0.0231 -0.20236,1.002794 -0.530231,1.259947 -0.462779,0.135129 -1.110226,-1.352759 -3.373334,0.423067 -3.345914,1.887852 -0.346774,1.618884 1.042433,3.164286 2.70529,2.796426 2.975967,-0.263204 5.073104,-2.670419 7.135656,-4.568606 2.178939,-2.098066 4.692411,-4.545629 7.950355,-4.434797 1.75373,-0.110763 3.35146,0.825847 4.59796,1.973057 1.7336,-1.834637 4.48268,-2.46815 6.86298,-1.646223 4.40923,1.598586 6.71179,6.231287 10.88611,8.213183 1.42428,0.557571 3.74933,0.98289 4.44977,-0.806814 0.73178,-1.65822 -0.4123,-3.869719 -2.30358,-3.896399 -1.24486,-0.405024 -0.68964,2.293415 -1.27054,0.666233 -0.30495,-2.477023 2.86424,-1.452664 3.86513,-0.335272 1.93086,1.366471 2.60358,4.370639 0.90855,6.192922 -2.57881,2.880765 -6.57257,4.25694 -10.38909,4.036144 -3.87624,-0.0385 -8.02129,-0.419927 -11.31454,-2.647649 -0.95603,-0.816122 -1.84356,-2.25602 -2.73538,-0.532947 -2.67172,2.291913 -6.328786,2.862077 -9.727449,3.108437 -1.30469,0.05639 -2.615477,0.127458 -3.920204,0.04875 z"
       id="path826"
       inkscape:connector-curvature="0" />
    <g
       id="g835"
       transform="translate(0,-0.52916663)">
      <circle
         r="1.25"
         cy="81.427345"
         cx="99.64389"
         id="path829"
         style="fill:#000000;fill-opacity:0;fill-rule:evenodd;stroke:none;stroke-width:0.75817174;stroke-miterlimit:4;stroke-dasharray:none;stroke-opacity:1" />
      <circle
         style="fill:#000000;fill-opacity:0;fill-rule:evenodd;stroke:none;stroke-width:0.75817174;stroke-miterlimit:4;stroke-dasharray:none;stroke-opacity:1"
         id="circle831"
         cx="110.22722"
         cy="81.427345"
         r="1.25" />
    </g>
  </g>
</svg>
